<svg width="14" height="14" viewBox="0 0 14 14" fill="none" xmlns="http://www.w3.org/2000/svg">
<path fill-rule="evenodd" clip-rule="evenodd" d="M0.292893 0.29094C0.683417 -0.099584 1.31658 -0.099584 1.70711 0.29094L7 5.58383L12.2929 0.29094C12.6834 -0.0995842 13.3166 -0.0995842 13.7071 0.29094C14.0976 0.681464 14.0976 1.31463 13.7071 1.70515L8.41421 6.99805L13.7071 12.2909C14.0976 12.6815 14.0976 13.3146 13.7071 13.7052C13.3166 14.0957 12.6834 14.0957 12.2929 13.7052L7 8.41226L1.70711 13.7052C1.31658 14.0957 0.683418 14.0957 0.292893 13.7052C-0.0976309 13.3146 -0.0976309 12.6815 0.292893 12.2909L5.58579 6.99805L0.292893 1.70515C-0.0976311 1.31463 -0.0976311 0.681465 0.292893 0.29094Z" fill="#777E91"/>
</svg>