<svg enable-background="new 0 0 512 512" viewBox="0 0 512 512" xmlns="http://www.w3.org/2000/svg"><g id="_x31_5_Arrow_Up"><g><path d="m388.211 301.175-67.666-21.467v177.542c0 20.346-16.493 36.839-36.839 36.839h-55.409c-20.346 0-36.839-16.493-36.839-36.839v-177.542l-67.666 21.467c-33.32 10.571-61.25-26.867-41.626-55.795l143.35-211.31c14.615-21.544 46.357-21.544 60.972 0l143.349 211.31c19.625 28.927-8.306 66.365-41.626 55.795z" fill="#9ccaf2"/><path d="m228.294 505.993h55.418c26.866 0 48.734-21.867 48.734-48.745v-161.274l52.163 16.549c20.112 6.377 41.212-.419 53.814-17.322 12.602-16.892 13.09-39.067 1.256-56.505l-143.342-211.304c-9.079-13.392-24.157-21.385-40.328-21.385-16.183 0-31.261 7.992-40.34 21.379l-143.353 211.31c-11.835 17.438-11.335 39.619 1.267 56.511s33.702 23.675 53.814 17.316l52.163-16.549v161.273c0 26.878 21.868 48.746 48.734 48.746zm-108.105-216.163c-12.497 3.976-22.391-1.988-27.529-8.864-5.127-6.871-7.987-18.078-.651-28.901l143.353-211.315c4.72-6.946 12.242-10.934 20.647-10.934 8.394 0 15.915 3.988 20.635 10.94l143.341 211.309c7.347 10.823 4.487 22.03-.639 28.901-5.127 6.876-15.02 12.84-27.529 8.864l-67.672-21.466c-3.639-1.139-7.568-.5-10.637 1.738-3.057 2.244-4.871 5.813-4.871 9.608v177.537c0 13.753-11.184 24.936-24.925 24.936h-55.418c-13.741 0-24.925-11.184-24.925-24.936v-177.537c0-3.796-1.814-7.365-4.871-9.608-2.069-1.511-4.534-2.296-7.033-2.296-1.209 0-2.418.186-3.604.558z" fill="#1591ed"/></g></g><g id="Layer_1"/></svg>