<svg id="Layer_1" enable-background="new 0 0 128 128" viewBox="0 0 128 128" xmlns="http://www.w3.org/2000/svg"><g><path d="m9 28v66.8c0 5.1 4.1 9.2 9.2 9.2h91.7c5.1 0 9.2-4.1 9.2-9.2v-66.8z" fill="#fff"/><path d="m11 33.1 46.1 43.8c3.9 3.7 9.9 3.7 13.8 0l46.1-43.8c1.3-1.2 2-2.9 2-4.6 0-3.5-2.9-6.4-6.4-6.4h-97.2c-3.5-.1-6.4 2.8-6.4 6.3 0 1.8.7 3.5 2 4.7z" fill="#fff"/><path d="m122 27.6c-.4-4.8-4.5-8.6-9.4-8.6h-97.2c-5.2 0-9.4 4.2-9.4 9.4 0 2.6 1.1 5.1 2.9 6.8l46.1 43.8c2.5 2.4 5.7 3.6 9 3.6s6.4-1.2 9-3.6l43-40.9v56.7c0 3.4-2.8 6.2-6.2 6.2h-91.6c-3.4 0-6.2-2.8-6.2-6.2v-36.8c0-1.7-1.3-3-3-3s-3 1.3-3 3v36.8c0 6.7 5.5 12.2 12.2 12.2h91.7c6.7 0 12.2-5.5 12.2-12.2v-66.8c-.1-.1-.1-.3-.1-.4zm-7.1 3.3-46.1 43.8c-2.7 2.6-6.9 2.6-9.6 0l-46.1-43.8c-.7-.6-1.1-1.5-1.1-2.5 0-1.9 1.5-3.4 3.4-3.4h97.2c1.9 0 3.4 1.5 3.4 3.4 0 .9-.4 1.8-1.1 2.5z" fill="#444b54"/></g></svg>